<svg width="200" height="300" viewBox="0 0 200 300" fill="none" xmlns="http://www.w3.org/2000/svg">
<rect width="200" height="300" fill="white"/>
<rect width="200" height="300" fill="white"/>
<path d="M175.606 166.75C189.606 226.25 157.73 255.075 103.606 255.075C49.482 255.075 12.6059 222.25 24.1059 166.75C35.6058 111.25 47.1059 53.7499 95.6059 49.2499C144.106 44.7499 161.606 107.25 175.606 166.75Z" fill="#CDA769"/>
<path d="M23.1058 169.75C86.5104 197.756 119.904 197.461 175.606 168.25C183.589 214.436 175.71 231.681 142.106 248.75C110.715 258.323 92.8639 258.168 60.6058 248.75C28.5187 227.66 19.5564 210.784 23.1058 169.75Z" fill="#EED437"/>
<path d="M130.23 60.1448C130.23 60.1448 152.106 35.355 154.606 47.7499C157.106 60.1448 148.307 83.9647 148.307 83.9647L130.23 60.1448Z" fill="#947C55"/>
<path d="M133.869 63.6493C133.869 63.6493 148.709 44.6556 149.67 53.5042C150.631 62.3527 143.995 80.0137 143.995 80.0137L133.869 63.6493Z" fill="#313027"/>
<path d="M65.8834 60.8947C65.8834 60.8947 44.0611 36.1049 41.5673 48.4998C39.0734 60.8947 47.8503 84.7146 47.8503 84.7146L65.8834 60.8947Z" fill="#947C55"/>
<path d="M62.2534 64.3992C62.2534 64.3992 47.4498 45.4055 46.4909 54.2541C45.5319 63.1026 52.1524 80.7636 52.1524 80.7636L62.2534 64.3992Z" fill="#313027"/>
<ellipse cx="81.1058" cy="91.7499" rx="4.5" ry="8" fill="white"/>
<ellipse cx="120.106" cy="91.7499" rx="4.5" ry="8" fill="white"/>
<ellipse cx="80.6058" cy="94.7499" rx="2" ry="3" fill="black"/>
<ellipse cx="120.606" cy="94.7499" rx="2" ry="3" fill="black"/>
<path d="M119.238 77.8557C119.238 77.8557 121.703 78.0896 123.106 78.7499C125.354 79.8085 127.606 83.2499 127.606 83.2499" stroke="black" stroke-width="2"/>
<path d="M81.5061 77.2083C81.5061 77.2083 79.041 77.4422 77.6384 78.1025C75.3899 79.1611 73.1384 82.6025 73.1384 82.6025" stroke="black" stroke-width="2"/>
<path d="M111.606 115.522C111.606 123.701 106.681 123.75 100.606 123.75C94.5307 123.75 89.6058 123.701 89.6058 115.522C92.9058 106.636 94.7391 98.7372 100.606 97.7499C107.206 99.0663 108.306 106.965 111.606 115.522Z" fill="#FEDB99"/>
<path d="M100.606 112.25C97.6058 112.25 85.3214 98.2499 90.2136 97.2499C95.1058 96.2499 106.606 96.7499 110.998 97.2499C115.079 97.7145 103.606 112.25 100.606 112.25Z" fill="black"/>
<line x1="100.106" y1="111.75" x2="100.106" y2="117.75" stroke="black"/>
<path d="M99.6058 117.75C99.6058 117.75 101.387 118.75 102.606 118.75C103.824 118.75 105.606 117.75 105.606 117.75" stroke="black"/>
<path d="M94.6058 117.75C94.6058 117.75 96.1218 118.647 97.1772 118.74C98.5533 118.863 100.606 117.75 100.606 117.75" stroke="black"/>
<g filter="url(#filter0_i)">
<ellipse cx="139.032" cy="140.289" rx="13" ry="38.5" transform="rotate(32 139.032 140.289)" fill="#CDA769"/>
</g>
<path d="M149.633 146.913C144.02 155.895 137.719 163.241 132.085 167.86C129.265 170.171 126.635 171.781 124.359 172.583C122.077 173.386 120.234 173.351 118.895 172.515C117.556 171.678 116.717 170.037 116.439 167.634C116.162 165.237 116.456 162.167 117.297 158.62C118.978 151.531 122.819 142.647 128.432 133.665C134.045 124.682 140.345 117.336 145.98 112.717C148.799 110.406 151.43 108.796 153.706 107.995C155.987 107.191 157.83 107.226 159.169 108.063C160.508 108.9 161.347 110.541 161.626 112.944C161.903 115.34 161.609 118.41 160.768 121.958C159.086 129.047 155.246 137.93 149.633 146.913Z" stroke="#313027"/>
<g filter="url(#filter1_i)">
<ellipse rx="13" ry="38.5" transform="matrix(-0.848049 0.52992 0.52992 0.848049 58.0323 137.289)" fill="#CDA769"/>
</g>
<path d="M47.4317 143.913C53.0447 152.895 59.3453 160.241 64.98 164.86C67.7995 167.171 70.43 168.781 72.7057 169.583C74.9875 170.386 76.8303 170.351 78.1693 169.515C79.5082 168.678 80.3475 167.037 80.6255 164.634C80.9029 162.237 80.609 159.167 79.7677 155.62C78.0864 148.531 74.2459 139.647 68.6329 130.665C63.0199 121.682 56.7194 114.336 51.0846 109.717C48.2652 107.406 45.6347 105.796 43.3589 104.995C41.0772 104.191 39.2343 104.226 37.8954 105.063C36.5565 105.9 35.7172 107.541 35.4391 109.944C35.1617 112.34 35.4556 115.41 36.2969 118.958C37.9783 126.047 41.8187 134.93 47.4317 143.913Z" stroke="#313027"/>
<path d="M98.7746 178.137C100.093 178.137 102.751 178.886 102.751 177.143C102.751 175.728 102.603 174.956 100.984 174.956C99.458 174.956 95.1962 174.317 95.1962 176.746C95.1962 182.638 104.184 186.319 105.931 179.33" stroke="black" stroke-linecap="round" stroke-linejoin="round"/>
<path d="M68.6058 250.25C79.6058 251.251 58.2267 267.749 41.1058 267.749C37.6058 263.75 46.6058 269.505 46.6058 256.25C46.6058 242.995 25.6058 234.25 29.6058 218.749C34.7384 230.045 57.6058 249.249 68.6058 250.25Z" fill="#EB8835"/>
<path d="M137.106 249.75C126.106 250.751 146.097 267.75 163.218 267.75C166.718 263.751 157.718 269.506 157.718 256.251C157.718 242.996 178.606 235.251 174.606 219.75C169.473 231.046 148.106 248.749 137.106 249.75Z" fill="#EB8835"/>
<path d="M74.9934 198.998C75.8348 199.162 76.4616 199.52 77.2518 199.731C78.0245 199.937 78.616 200.603 79.4508 200.603" stroke="white" stroke-linecap="round" stroke-linejoin="round"/>
<path d="M82.4818 201.316C83.9862 201.316 85.4284 201.494 86.9392 201.494" stroke="white" stroke-linecap="round" stroke-linejoin="round"/>
<path d="M89.0787 201.851C90.6465 202.462 92.4041 202.742 94.071 202.742" stroke="white" stroke-linecap="round" stroke-linejoin="round"/>
<path d="M96.7454 202.742C97.8152 202.742 98.885 202.742 99.9548 202.742" stroke="white" stroke-linecap="round" stroke-linejoin="round"/>
<path d="M102.807 202.742C103.933 202.742 104.88 203.099 106.017 203.099" stroke="white" stroke-linecap="round" stroke-linejoin="round"/>
<path d="M108.87 203.099C110.236 203.099 111.603 203.099 112.97 203.099" stroke="white" stroke-linecap="round" stroke-linejoin="round"/>
<path d="M116.001 203.099C117.054 203.099 117.919 203.21 118.854 202.742" stroke="white" stroke-linecap="round" stroke-linejoin="round"/>
<path d="M122.777 202.742C123.768 202.723 124.618 202.207 125.54 202.207C126.033 202.207 126.268 202.109 126.699 201.851" stroke="white" stroke-linecap="round" stroke-linejoin="round"/>
<path d="M128.839 201.137C129.165 201.01 130.852 200.497 130.978 200.246" stroke="white" stroke-linecap="round" stroke-linejoin="round"/>
<path d="M133.653 199.533C134.798 199.533 135.436 199.333 135.436 200.603" stroke="white" stroke-linecap="round" stroke-linejoin="round"/>
<path d="M73.319 199.75C72.7382 200.548 72.6058 201.11 72.6058 202.068" stroke="white" stroke-linecap="round" stroke-linejoin="round"/>
<path d="M135.986 202.75C135.683 203.259 135.094 203.908 135.094 204.533" stroke="white" stroke-linecap="round" stroke-linejoin="round"/>
<path d="M134.024 207.92C133.645 208.542 133.354 209.04 133.133 209.703" stroke="white" stroke-linecap="round" stroke-linejoin="round"/>
<path d="M131.528 213.091C131.201 213.549 130.925 214.038 130.637 214.517" stroke="white" stroke-linecap="round" stroke-linejoin="round"/>
<path d="M128.676 216.657C128.337 217.208 127.973 217.731 127.606 218.262" stroke="white" stroke-linecap="round" stroke-linejoin="round"/>
<path d="M72.5321 204.399C72.6857 204.792 72.9943 206.096 73.3848 206.226" stroke="white" stroke-linecap="round" stroke-linejoin="round"/>
<path d="M73.9939 207.931C74.2841 208.512 74.4943 209.095 75.0902 209.393" stroke="white" stroke-linecap="round" stroke-linejoin="round"/>
<path d="M75.8211 211.586C76.5259 211.998 77.0238 212.27 77.2828 213.047" stroke="white" stroke-linecap="round" stroke-linejoin="round"/>
<path d="M78.0137 214.753C78.69 215.302 78.9541 216.243 79.7191 216.702" stroke="white" stroke-linecap="round" stroke-linejoin="round"/>
<defs>
<filter id="filter0_i" x="107.606" y="100.75" width="62.8531" height="83.0776" filterUnits="userSpaceOnUse" color-interpolation-filters="sRGB">
<feFlood flood-opacity="0" result="BackgroundImageFix"/>
<feBlend mode="normal" in="SourceGraphic" in2="BackgroundImageFix" result="shape"/>
<feColorMatrix in="SourceAlpha" type="matrix" values="0 0 0 0 0 0 0 0 0 0 0 0 0 0 0 0 0 0 127 0" result="hardAlpha"/>
<feOffset dy="8"/>
<feGaussianBlur stdDeviation="2"/>
<feComposite in2="hardAlpha" operator="arithmetic" k2="-1" k3="1"/>
<feColorMatrix type="matrix" values="0 0 0 0 0 0 0 0 0 0 0 0 0 0 0 0 0 0 0.5 0"/>
<feBlend mode="normal" in2="shape" result="effect1_innerShadow"/>
</filter>
<filter id="filter1_i" x="26.6058" y="97.7499" width="62.8531" height="83.0776" filterUnits="userSpaceOnUse" color-interpolation-filters="sRGB">
<feFlood flood-opacity="0" result="BackgroundImageFix"/>
<feBlend mode="normal" in="SourceGraphic" in2="BackgroundImageFix" result="shape"/>
<feColorMatrix in="SourceAlpha" type="matrix" values="0 0 0 0 0 0 0 0 0 0 0 0 0 0 0 0 0 0 127 0" result="hardAlpha"/>
<feOffset dy="8"/>
<feGaussianBlur stdDeviation="2"/>
<feComposite in2="hardAlpha" operator="arithmetic" k2="-1" k3="1"/>
<feColorMatrix type="matrix" values="0 0 0 0 0 0 0 0 0 0 0 0 0 0 0 0 0 0 0.5 0"/>
<feBlend mode="normal" in2="shape" result="effect1_innerShadow"/>
</filter>
</defs>
</svg>
